<svg xmlns="http://www.w3.org/2000/svg" width="32" height="32" viewBox="0 0 32 32"><g opacity=".97" transform="translate(.5 -1020.362)"><circle cx="14.896" cy="1040.824" r="9" color="#000" opacity=".15" overflow="visible" style="isolation:auto;mix-blend-mode:normal"/><circle style="isolation:auto;mix-blend-mode:normal" cx="15.996" cy="1040.824" r="9" fill="#60c5b8" color="#000" overflow="visible"/><path style="isolation:auto;mix-blend-mode:normal" fill="#f05542" d="m 15.148226,1032.3675 a 8.5,8.5000238 0 0 0 -1.796875,0.3867 8.5,8.5000238 0 0 1 1.796875,-0.3867 z m 2.152344,0.061 a 8.5,8.5000238 0 0 1 0.818359,0.1719 8.5,8.5000238 0 0 0 -0.818359,-0.1719 z m 0.818359,0.1719 a 8.5,8.5000238 0 0 1 0.810547,0.2539 8.5,8.5000238 0 0 0 -0.810547,-0.2539 z m 0.810547,0.2539 a 8.5,8.5000238 0 0 1 -2.923828,5.5059 8.5,8.5000238 0 0 0 5.498046,2.041 8.5,8.5000238 0 0 0 2.927735,-0.5273 8.5,8.5000238 0 0 0 -5.501953,-7.0196 z" color="#000" overflow="visible"/><path style="isolation:auto;mix-blend-mode:normal" fill="#f05542" d="m 15.127391,1032.3233 a 8.5467622,8.5467862 0 0 0 -1.80676,0.3888 8.5467622,8.5467862 0 0 1 1.80676,-0.3888 z m -2.089557,0.4929 a 8.5467622,8.5467862 0 0 0 -0.0059,0 8.5467622,8.5467862 0 0 1 0.0059,0 z m -0.0059,0 a 8.5467622,8.5467862 0 0 0 -5.5381139,7.0444 8.5467622,8.5467862 0 0 0 2.9556249,0.5381 8.5467622,8.5467862 0 0 0 8.485882,-7.5825 8.5467622,8.5467862 0 0 0 -0.0059,0 8.5467622,8.5467862 0 0 1 -2.951697,5.5421 8.5467622,8.5467862 0 0 1 -2.945805,-5.5401 z" color="#000" overflow="visible"/><path style="isolation:auto;mix-blend-mode:normal" fill="#f05542" d="m 16.005648,1025.43 a 8.5,8.5000238 0 0 0 -3.001954,6.4707 8.5,8.5000238 0 0 0 0.06055,0.959 8.5,8.5000238 0 0 1 0.0059,0 8.5,8.5000238 0 0 1 -0.002,-0.01 8.5,8.5000238 0 0 1 0.283203,-0.096 8.5,8.5000238 0 0 1 1.796875,-0.3867 8.5,8.5000238 0 0 1 0.84766,-0.043 l 0,0 a 8.5,8.5000238 0 0 1 0.453125,0.014 8.5,8.5000238 0 0 1 0.796875,0.084 8.5,8.5000238 0 0 1 0.04883,0.01 8.5,8.5000238 0 0 0 0.002,0 8.5,8.5000238 0 0 1 1.632813,0.4258 8.5,8.5000238 0 0 0 0.06636,-0.9532 8.5,8.5000238 0 0 0 -2.990234,-6.4707 z m 2.923828,7.4238 a 8.5,8.5000238 0 0 1 -2.316406,4.9336 8.5,8.5000238 0 0 0 2.316406,-4.9336 z m -5.865235,0.01 a 8.5,8.5000238 0 0 0 0.359375,1.6602 8.5,8.5000238 0 0 1 -0.359375,-1.6602 z m 0.361329,1.6641 a 8.5,8.5000238 0 0 0 0.296874,0.7832 8.5,8.5000238 0 0 1 -0.296874,-0.7832 z m 0.322265,0.834 a 8.5,8.5000238 0 0 0 0.335938,0.6797 8.5,8.5000238 0 0 1 -0.335938,-0.6797 z m 0.490235,0.9297 a 8.5,8.5000238 0 0 0 0.300781,0.4765 8.5,8.5000238 0 0 1 -0.300781,-0.4765 z m 0.472656,0.7031 a 8.5,8.5000238 0 0 0 0.339844,0.4316 8.5,8.5000238 0 0 1 -0.339844,-0.4316 z m 0.591797,0.7031 a 8.5,8.5000238 0 0 0 0.33789,0.3555 8.5,8.5000238 0 0 1 -0.33789,-0.3555 z" color="#000" overflow="visible"/><circle cx="9.496" cy="1031.901" color="#000" opacity=".15" overflow="visible" style="isolation:auto;mix-blend-mode:normal" r="9"/><circle style="isolation:auto;mix-blend-mode:normal" cx="10.496" cy="1031.901" r="9" fill="#f05542" color="#000" overflow="visible"/><circle style="isolation:auto;mix-blend-mode:normal" cx="20.504" cy="1031.901" r="9" color="#000" opacity=".15" overflow="visible"/><circle cx="21.504" cy="1031.901" fill="#34485c" color="#000" overflow="visible" style="isolation:auto;mix-blend-mode:normal" r="9"/><path style="isolation:auto;mix-blend-mode:normal" d="m 16.995984,1031.8227 a 9,9 0 0 0 -3.458985,0.7012 9,9.0000248 0 0 0 3.466797,6.4863 9,9.0000248 0 0 0 3.458985,-6.4902 9,9 0 0 0 -3.466797,-0.6973 z" color="#000" opacity=".15" overflow="visible"/><path style="isolation:auto;mix-blend-mode:normal" fill="#f8b84e" d="m 15.996094,11.460938 a 9,9 0 0 0 -3.458985,0.701171 9,9.0000248 0 0 0 3.466797,6.486329 9,9.0000248 0 0 0 3.458985,-6.490235 9,9 0 0 0 -3.466797,-0.697265 z" color="#000" overflow="visible" transform="translate(0 1020.362)"/></g></svg>