<svg xmlns="http://www.w3.org/2000/svg" width="32" height="32" viewBox="0 0 32 32"><g transform="translate(586.29 -1015.706)"><circle cx="-569.79" cy="1036.629" r="9" fill="#60c5b8" color="#000" overflow="visible" style="isolation:auto;mix-blend-mode:normal"/><path fill="#f05542" d="m -570.63753,1028.1725 a 8.5,8.5000238 0 0 0 -1.79688,0.3867 8.5,8.5000238 0 0 1 1.79688,-0.3867 z m 2.15234,0.061 a 8.5,8.5000238 0 0 1 0.81836,0.1719 8.5,8.5000238 0 0 0 -0.81836,-0.1719 z m 0.81836,0.1719 a 8.5,8.5000238 0 0 1 0.81055,0.2539 8.5,8.5000238 0 0 0 -0.81055,-0.2539 z m 0.81055,0.2539 a 8.5,8.5000238 0 0 1 -2.92383,5.5059 8.5,8.5000238 0 0 0 5.49804,2.041 8.5,8.5000238 0 0 0 2.92774,-0.5273 8.5,8.5000238 0 0 0 -5.50195,-7.0196 z" color="#000" overflow="visible" style="isolation:auto;mix-blend-mode:normal"/><path fill="#f05542" d="m -570.65837,1028.1283 a 8.5467622,8.5467862 0 0 0 -1.80676,0.3888 8.5467622,8.5467862 0 0 1 1.80676,-0.3888 z m -2.08956,0.4929 a 8.5467622,8.5467862 0 0 0 -0.006,0 8.5467622,8.5467862 0 0 1 0.006,0 z m -0.006,0 a 8.5467622,8.5467862 0 0 0 -5.53811,7.0444 8.5467622,8.5467862 0 0 0 2.95562,0.5381 8.5467622,8.5467862 0 0 0 8.48589,-7.5825 8.5467622,8.5467862 0 0 0 -0.006,0 8.5467622,8.5467862 0 0 1 -2.9517,5.5421 8.5467622,8.5467862 0 0 1 -2.9458,-5.5401 z" color="#000" overflow="visible" style="isolation:auto;mix-blend-mode:normal"/><path fill="#f05542" d="m -569.78011,1021.235 a 8.5,8.5000238 0 0 0 -3.00196,6.4707 8.5,8.5000238 0 0 0 0.0605,0.959 8.5,8.5000238 0 0 1 0.006,0 8.5,8.5000238 0 0 1 -0.002,-0.01 8.5,8.5000238 0 0 1 0.28321,-0.096 8.5,8.5000238 0 0 1 1.79687,-0.3867 8.5,8.5000238 0 0 1 0.84766,-0.043 l 0,0 a 8.5,8.5000238 0 0 1 0.45313,0.014 8.5,8.5000238 0 0 1 0.79687,0.084 8.5,8.5000238 0 0 1 0.0488,0.01 8.5,8.5000238 0 0 0 0.002,0 8.5,8.5000238 0 0 1 1.63282,0.4258 8.5,8.5000238 0 0 0 0.0664,-0.9532 8.5,8.5000238 0 0 0 -2.99024,-6.4707 z m 2.92383,7.4238 a 8.5,8.5000238 0 0 1 -2.31641,4.9336 8.5,8.5000238 0 0 0 2.31641,-4.9336 z m -5.86524,0.01 a 8.5,8.5000238 0 0 0 0.35938,1.6602 8.5,8.5000238 0 0 1 -0.35938,-1.6602 z m 0.36133,1.6641 a 8.5,8.5000238 0 0 0 0.29687,0.7832 8.5,8.5000238 0 0 1 -0.29687,-0.7832 z m 0.32227,0.834 a 8.5,8.5000238 0 0 0 0.33593,0.6797 8.5,8.5000238 0 0 1 -0.33593,-0.6797 z m 0.49023,0.9297 a 8.5,8.5000238 0 0 0 0.30078,0.4765 8.5,8.5000238 0 0 1 -0.30078,-0.4765 z m 0.47266,0.7031 a 8.5,8.5000238 0 0 0 0.33984,0.4316 8.5,8.5000238 0 0 1 -0.33984,-0.4316 z m 0.59179,0.7031 a 8.5,8.5000238 0 0 0 0.33789,0.3555 8.5,8.5000238 0 0 1 -0.33789,-0.3555 z" color="#000" overflow="visible" style="isolation:auto;mix-blend-mode:normal"/><circle cx="-575.29" cy="1027.706" fill="#f05542" color="#000" overflow="visible" style="isolation:auto;mix-blend-mode:normal" r="9"/><circle style="isolation:auto;mix-blend-mode:normal" cx="-564.282" cy="1027.706" r="9" fill="#34485c" color="#000" overflow="visible"/><path fill="#f8b84e" style="isolation:auto;mix-blend-mode:normal" d="m -569.78967,1027.6281 a 9,9 0 0 0 -3.45898,0.7012 9,9.0000248 0 0 0 3.4668,6.4863 9,9.0000248 0 0 0 3.45898,-6.4902 9,9 0 0 0 -3.4668,-0.6973 z" color="#000" overflow="visible"/></g></svg>